<?xml version="1.0" standalone="no"?>
<!DOCTYPE svg PUBLIC "-//W3C//DTD SVG 20010904//EN"
 "http://www.w3.org/TR/2001/REC-SVG-20010904/DTD/svg10.dtd">
<svg version="1.0" xmlns="http://www.w3.org/2000/svg"
 width="130.000000pt" height="94.000000pt" viewBox="0 0 130.000000 94.000000"
 preserveAspectRatio="xMidYMid meet">
<metadata>
Created by potrace 1.16, written by Peter Selinger 2001-2019
</metadata>
<g transform="translate(0.000000,94.000000) scale(0.100000,-0.100000)"
fill="#000000" stroke="none">
<path d="M632 728 c-5 -7 -15 -32 -21 -54 -6 -23 -29 -65 -52 -93 -39 -49 -43
-51 -91 -51 -87 0 -88 -2 -88 -150 0 -150 0 -150 95 -150 31 0 88 -10 127 -21
83 -25 176 -23 207 5 30 27 74 194 74 280 0 44 -42 76 -99 76 -43 0 -45 1 -37
23 16 45 6 100 -22 124 -29 25 -77 30 -93 11z m76 -40 c16 -16 15 -77 -3 -108
-26 -45 -20 -50 53 -50 40 0 73 -5 80 -12 13 -13 16 -51 5 -62 -4 -4 -8 -22
-9 -39 -2 -52 -13 -100 -24 -111 -5 -5 -10 -19 -10 -31 0 -12 -5 -26 -12 -33
-19 -19 -131 -14 -213 10 l-75 22 0 107 c0 99 2 108 20 114 32 10 109 113 121
161 9 35 16 44 33 44 12 0 27 -5 34 -12z"/>
</g>
</svg>
